<svg width="50" height="50" viewBox="0 0 50 50" fill="none" xmlns="http://www.w3.org/2000/svg">
<circle cx="25" cy="25" r="25" fill="#B5212E"/>
<path fill-rule="evenodd" clip-rule="evenodd" d="M22.5234 16.6576C22.5234 15.3734 23.2489 14.3146 24.4155 13.9813C25.5821 13.7068 26.7487 14.2656 27.2486 15.3636C27.4153 15.7557 27.4741 16.1478 27.4741 16.589C27.4447 17.2017 27.403 17.8144 27.3614 18.4271C27.3197 19.0398 27.2781 19.6525 27.2486 20.2652C27.1947 21.2112 27.1384 22.1572 27.082 23.1032C27.0256 24.0493 26.9692 24.9953 26.9153 25.9414C26.8565 26.559 26.8565 27.1178 26.8565 27.7256C26.8075 28.7353 26.0232 29.5098 25.0233 29.5098C24.0233 29.5098 23.2489 28.7843 23.1901 27.7844C23.1067 26.309 23.0234 24.8483 22.9401 23.3876C22.8568 21.9269 22.7734 20.4662 22.6901 18.9908C22.6607 18.6036 22.6337 18.2139 22.6068 17.8242C22.5798 17.4345 22.5528 17.0448 22.5234 16.6576ZM22.5731 33.6377C22.5731 32.3044 23.6907 31.1868 25.0239 31.1868C26.367 31.1868 27.4747 32.2946 27.4159 33.6965C27.4747 34.9709 26.3081 36.0885 25.0239 36.0885C23.6907 36.0885 22.5731 34.9709 22.5731 33.6377Z" fill="white"/>
</svg>
